<svg width="28" height="36" viewBox="0 0 28 36" fill="none" xmlns="http://www.w3.org/2000/svg">
<g clip-path="url(#clip0_6_9)">
<path d="M1.21875 35.5V1.375H13.1719C17.3125 1.375 20.4531 2.17188 22.5938 3.76562C24.7344 5.34375 25.8047 7.66406 25.8047 10.7266C25.8047 12.3984 25.375 13.875 24.5156 15.1562C23.6562 16.4219 22.4609 17.3516 20.9297 17.9453C22.6797 18.3828 24.0547 19.2656 25.0547 20.5938C26.0703 21.9219 26.5781 23.5469 26.5781 25.4688C26.5781 28.75 25.5312 31.2344 23.4375 32.9219C21.3438 34.6094 18.3594 35.4688 14.4844 35.5H1.21875ZM8.25 20.6406V29.8516H14.2734C15.9297 29.8516 17.2188 29.4609 18.1406 28.6797C19.0781 27.8828 19.5469 26.7891 19.5469 25.3984C19.5469 22.2734 17.9297 20.6875 14.6953 20.6406H8.25ZM8.25 15.6719H13.4531C17 15.6094 18.7734 14.1953 18.7734 11.4297C18.7734 9.88281 18.3203 8.77344 17.4141 8.10156C16.5234 7.41406 15.1094 7.07031 13.1719 7.07031H8.25V15.6719Z" fill="url(#paint0_linear_6_9)"/>
</g>
<defs>
<linearGradient id="paint0_linear_6_9" x1="13.8984" y1="1.375" x2="13.8984" y2="35.5" gradientUnits="userSpaceOnUse">
<stop stop-color="#3477DB"/>
<stop offset="1" stop-color="#6A9AE3"/>
</linearGradient>
<clipPath id="clip0_6_9">
<rect width="27" height="35" fill="white" transform="translate(0.5 0.5)"/>
</clipPath>
</defs>
</svg>
