<svg width="75" height="87" viewBox="0 0 75 87" fill="none" xmlns="http://www.w3.org/2000/svg">
<path d="M45.3678 73.5754C45.3678 73.5754 45.5917 63.389 45.3678 60.4786C45.1439 57.5682 45.7036 57.0086 45.3678 54.7698C45.032 52.531 42.9052 50.852 43.0171 37.9791L43.0126 36.5239C43.0126 36.5239 42.7869 33.2777 44.2448 29.4718C45.7027 25.6659 45.5908 24.7704 46.1505 23.0914C46.7101 21.4123 48.1653 12.4573 50.0683 12.1214C51.9712 11.7856 52.5309 13.4647 51.8593 16.1512C51.1877 18.8377 50.7399 21.0765 50.7399 23.0914C50.7399 25.1062 50.8518 27.5689 48.837 28.4644" stroke="url(#paint0_linear_8_115)" stroke-width="2" stroke-miterlimit="10" stroke-linecap="round" stroke-linejoin="round"/>
<path d="M52.064 15.1136C52.064 15.1136 52.9792 10.928 53.5765 8.61399C54.1738 6.30091 54.6215 4.58423 56.5612 5.10631C58.5017 5.62838 57.6062 7.5564 57.1585 10.0629C56.7107 12.5694 56.4125 16.1514 56.4125 16.9717C56.4125 17.7929 56.3382 23.6137 55.2932 25.0313" stroke="url(#paint1_linear_8_115)" stroke-width="2" stroke-miterlimit="10" stroke-linecap="round" stroke-linejoin="round"/>
<path d="M57.7593 6.97245C57.7593 6.97245 58.2034 4.36027 58.2787 3.31611C58.3539 2.27195 58.4282 0.927803 60.5174 1.00302C62.6066 1.07735 62.6819 3.24178 62.458 7.4211C62.2341 11.6004 62.3837 12.5702 62.2341 15.3311C62.0846 18.0919 60.9652 22.3456 60.8909 23.5402C60.8909 23.5402 60.8165 24.6595 60.8165 25.4807" stroke="url(#paint2_linear_8_115)" stroke-width="2" stroke-miterlimit="10" stroke-linecap="round" stroke-linejoin="round"/>
<path d="M62.458 7.4203C62.458 7.4203 62.6819 5.18154 64.3233 5.47974C65.9648 5.77794 66.786 6.73792 66.786 12.0787C66.786 17.4195 67.2337 20.0317 66.786 24.3596C66.3382 28.6876 66.9597 30.1061 66.9848 32.3448" stroke="url(#paint3_linear_8_115)" stroke-width="2" stroke-miterlimit="10" stroke-linecap="round" stroke-linejoin="round"/>
<path d="M63.2037 40.5536C63.2037 40.5536 64.3974 40.3297 65.2186 38.4644C66.0398 36.599 66.6612 35.1062 66.9845 32.3454C67.3078 29.5846 69.92 25.6291 72.0835 25.4796C74.248 25.33 74.248 26.599 73.6507 27.8679C73.0534 29.1368 72.8295 30.4048 72.4569 32.4197C72.0835 34.4346 71.3376 35.9274 71.188 37.1954C71.0385 38.4635 71.1137 41.7419 71.1137 42.8273C71.1137 43.9126 70.5164 44.5833 69.0988 46.1505C67.6812 47.7176 65.2678 51.5978 64.7207 52.2695C64.1735 52.9411 63.3524 53.3888 62.4569 54.0605C61.5614 54.7321 60.8154 56.3736 61.0393 60.8511C61.2632 65.3286 60.81 69.3584 60.999 72.3431C61.1879 75.3278 61.8596 80.1044 62.0834 80.9999" stroke="url(#paint4_linear_8_115)" stroke-width="2" stroke-miterlimit="10" stroke-linecap="round" stroke-linejoin="round"/>
<path d="M64.9943 38.9141C64.9943 38.9141 64.2295 37.364 63.0537 37.5315" stroke="url(#paint5_linear_8_115)" stroke-width="2" stroke-miterlimit="10" stroke-linecap="round" stroke-linejoin="round"/>
<path d="M16 81.4375V53H25.961C29.4115 53 32.0287 53.6641 33.8125 54.9922C35.5964 56.3073 36.4883 58.2409 36.4883 60.793C36.4883 62.1862 36.1302 63.4167 35.4141 64.4844C34.6979 65.5391 33.7018 66.3138 32.4258 66.8086C33.8841 67.1732 35.03 67.9089 35.8633 69.0156C36.7097 70.1224 37.1328 71.4766 37.1328 73.0781C37.1328 75.8125 36.2604 77.8828 34.5156 79.2891C32.7709 80.6953 30.2839 81.4115 27.0547 81.4375H16ZM21.8594 69.0547V76.7305H26.8789C28.2591 76.7305 29.3334 76.4049 30.1016 75.7539C30.8828 75.0898 31.2735 74.1784 31.2735 73.0195C31.2735 70.4154 29.9258 69.0937 27.2305 69.0547H21.8594ZM21.8594 64.9141H26.1953C29.1511 64.862 30.6289 63.6836 30.6289 61.3789C30.6289 60.0898 30.2513 59.1654 29.4961 58.6055C28.7539 58.0326 27.5755 57.7461 25.961 57.7461H21.8594V64.9141Z" fill="#456CF3" fill-opacity="0.97"/>
<defs>
<linearGradient id="paint0_linear_8_115" x1="47.5659" y1="12.0788" x2="47.5659" y2="73.5754" gradientUnits="userSpaceOnUse">
<stop/>
<stop offset="1" stop-color="#6A9AE3"/>
</linearGradient>
<linearGradient id="paint1_linear_8_115" x1="54.9114" y1="5.01221" x2="54.9114" y2="25.0313" gradientUnits="userSpaceOnUse">
<stop/>
<stop offset="1" stop-color="#6A9AE3"/>
</linearGradient>
<linearGradient id="paint2_linear_8_115" x1="60.1517" y1="1" x2="60.1517" y2="25.4807" gradientUnits="userSpaceOnUse">
<stop/>
<stop offset="1" stop-color="#6A9AE3"/>
</linearGradient>
<linearGradient id="paint3_linear_8_115" x1="64.7215" y1="5.45239" x2="64.7215" y2="32.3448" gradientUnits="userSpaceOnUse">
<stop/>
<stop offset="1" stop-color="#6A9AE3"/>
</linearGradient>
<linearGradient id="paint4_linear_8_115" x1="67.4715" y1="25.4675" x2="67.4715" y2="80.9999" gradientUnits="userSpaceOnUse">
<stop/>
<stop offset="1" stop-color="#6A9AE3"/>
</linearGradient>
<linearGradient id="paint5_linear_8_115" x1="64.024" y1="37.5189" x2="64.024" y2="38.9141" gradientUnits="userSpaceOnUse">
<stop/>
<stop offset="1" stop-color="#6A9AE3"/>
</linearGradient>
</defs>
</svg>
