<svg width="28" height="36" viewBox="0 0 28 36" fill="none" xmlns="http://www.w3.org/2000/svg">
<g clip-path="url(#clip0_6_11)">
<path d="M0.9375 35.5V1.375H11.4375C14.4375 1.375 17.1172 2.05469 19.4766 3.41406C21.8516 4.75781 23.7031 6.67969 25.0312 9.17969C26.3594 11.6641 27.0234 14.4922 27.0234 17.6641V19.2344C27.0234 22.4062 26.3672 25.2266 25.0547 27.6953C23.7578 30.1641 21.9219 32.0781 19.5469 33.4375C17.1719 34.7969 14.4922 35.4844 11.5078 35.5H0.9375ZM7.96875 7.07031V29.8516H11.3672C14.1172 29.8516 16.2188 28.9531 17.6719 27.1562C19.125 25.3594 19.8672 22.7891 19.8984 19.4453V17.6406C19.8984 14.1719 19.1797 11.5469 17.7422 9.76562C16.3047 7.96875 14.2031 7.07031 11.4375 7.07031H7.96875Z" fill="#456CF3" fill-opacity="0.97"/>
</g>
<defs>
<clipPath id="clip0_6_11">
<rect width="27" height="35" fill="white" transform="translate(0.5 0.5)"/>
</clipPath>
</defs>
</svg>
