<svg width="71" height="85" viewBox="0 0 71 85" fill="none" xmlns="http://www.w3.org/2000/svg">
<g clip-path="url(#clip0_8_137)">
<path d="M45.8897 80.9999C45.8897 80.9999 45.5307 75.2557 45.8897 68.9131C46.2487 62.5705 46.7274 61.1345 45.1717 58.023C43.616 54.9115 41.3422 48.4493 42.1799 40.4313C43.0176 32.4133 43.6782 33.61 44.1262 30.9772C44.5733 28.3445 45.411 24.0363 47.4454 23.6773C49.4799 23.3183 51.5985 22.6529 53.1542 26.1234" stroke="url(#paint0_linear_8_137)" stroke-width="2" stroke-miterlimit="10" stroke-linecap="round" stroke-linejoin="round"/>
<path d="M64.5588 79.3247C64.5588 79.3247 63.2424 71.187 63.6014 67.3576C63.9604 63.5281 63.2424 62.6904 62.8834 60.4166C62.5244 58.1429 63.9604 54.1985 65.2768 52.1612C66.5932 50.1239 66.7129 48.6888 67.4309 47.6118C68.1489 46.5347 69.226 45.338 68.1489 41.7479C67.0719 38.1577 67.0719 37.32 67.0719 36.0036C67.0719 34.6872 66.036 32.8922 65.7163 31.9348C65.7163 31.9348 65.1571 30.5581 65.2175 28.764C65.2778 26.9689 62.824 25.4725 60.6699 28.764C60.6699 28.764 59.4139 30.7381 59.4732 33.1315C59.5335 35.5249 59.8322 36.602 60.6106 37.9184C61.388 39.2348 61.1486 40.3118 60.9696 42.1069" stroke="url(#paint1_linear_8_137)" stroke-width="2" stroke-miterlimit="10" stroke-linecap="round" stroke-linejoin="round"/>
<path d="M51.6935 22.5409C51.6935 22.5409 53.3095 25.7117 53.4886 27.6868C53.6685 29.6609 56.6603 29.9002 57.5574 28.8241C58.4554 27.7471 57.3784 24.9946 57.139 23.7386C56.8997 22.4825 56.241 18.8923 54.5062 18.5324C52.7705 18.1734 51.6341 18.2337 50.9755 19.3701C50.3177 20.5074 49.9587 21.9521 50.0181 23.324" stroke="url(#paint2_linear_8_137)" stroke-width="2" stroke-miterlimit="10" stroke-linecap="round" stroke-linejoin="round"/>
<path d="M53.3409 26.8164C53.3409 26.8164 54.0273 29.4214 50.8565 29.1821C50.8565 29.1821 48.5828 29.1974 47.207 26.8164" stroke="url(#paint3_linear_8_137)" stroke-width="2" stroke-miterlimit="10" stroke-linecap="round" stroke-linejoin="round"/>
<path d="M46.2485 28.3445C46.2485 28.3445 48.0943 29.545 48.8765 28.5561" stroke="url(#paint4_linear_8_137)" stroke-miterlimit="10" stroke-linecap="round" stroke-linejoin="round"/>
<path d="M50.0127 29.0461C50.0127 29.0461 50.163 31.3362 47.5781 31.8742" stroke="url(#paint5_linear_8_137)" stroke-miterlimit="10" stroke-linecap="round" stroke-linejoin="round"/>
<path d="M57.9038 27.7559C57.9038 27.7559 58.0781 29.9731 60.3011 29.4581" stroke="url(#paint6_linear_8_137)" stroke-width="2" stroke-miterlimit="10" stroke-linecap="round" stroke-linejoin="round"/>
<path d="M55.8154 19.6131C55.8154 19.6131 56.1658 16.2575 57.9082 16.0182C59.6516 15.7789 60.609 15.6592 61.5664 16.8559C62.5237 18.0526 62.2241 18.4719 62.4041 20.7447C62.5831 23.0185 63.0618 26.8154 63.0618 26.8154" stroke="url(#paint7_linear_8_137)" stroke-width="2" stroke-miterlimit="10" stroke-linecap="round" stroke-linejoin="round"/>
<path d="M62.7593 24.2699C62.7593 24.2699 63.3021 24.8749 63.7205 21.8228C64.1389 18.7707 64.0795 16.3773 64.6779 13.5655C65.2762 10.7537 65.3959 8.2406 65.3356 6.74423C65.2762 5.24882 64.7975 1 67.7893 1C70.7811 1 70.3618 7.10325 70.3618 9.43636C70.3618 11.7695 70.2421 17.6334 69.7041 20.6261C69.1651 23.6179 69.4044 26.3416 69.4044 29.1984C69.4044 32.0552 69.1651 35.1667 68.8664 36.4228C68.5667 37.6788 67.9052 40.9195 67.9052 40.9195" stroke="url(#paint8_linear_8_137)" stroke-width="2" stroke-miterlimit="10" stroke-linecap="round" stroke-linejoin="round"/>
<path d="M13 79.4375V51H21.75C24.25 51 26.4831 51.5664 28.4493 52.6992C30.4284 53.819 31.9714 55.4206 33.0782 57.5039C34.1849 59.5742 34.7383 61.931 34.7383 64.5742V65.8828C34.7383 68.526 34.1915 70.8763 33.0977 72.9336C32.017 74.9909 30.487 76.5859 28.5079 77.7187C26.5287 78.8516 24.2956 79.4245 21.8086 79.4375H13ZM18.8594 55.7461V74.7305H21.6915C23.9831 74.7305 25.7344 73.9818 26.9454 72.4844C28.1563 70.987 28.7748 68.8451 28.8008 66.0586V64.5547C28.8008 61.6641 28.2019 59.4766 27.004 57.9922C25.806 56.4948 24.0547 55.7461 21.75 55.7461H18.8594Z" fill="#456CF3" fill-opacity="0.97"/>
</g>
<defs>
<linearGradient id="paint0_linear_8_137" x1="47.5771" y1="23.3777" x2="47.5771" y2="80.9999" gradientUnits="userSpaceOnUse">
<stop/>
<stop offset="1" stop-color="#6A9AE3"/>
</linearGradient>
<linearGradient id="paint1_linear_8_137" x1="64.0379" y1="26.8169" x2="64.0379" y2="79.3247" gradientUnits="userSpaceOnUse">
<stop/>
<stop offset="1" stop-color="#6A9AE3"/>
</linearGradient>
<linearGradient id="paint2_linear_8_137" x1="53.9604" y1="18.3375" x2="53.9604" y2="29.4582" gradientUnits="userSpaceOnUse">
<stop/>
<stop offset="1" stop-color="#6A9AE3"/>
</linearGradient>
<linearGradient id="paint3_linear_8_137" x1="50.3053" y1="26.8164" x2="50.3053" y2="29.1976" gradientUnits="userSpaceOnUse">
<stop/>
<stop offset="1" stop-color="#6A9AE3"/>
</linearGradient>
<linearGradient id="paint4_linear_8_137" x1="47.5625" y1="28.3445" x2="47.5625" y2="28.9467" gradientUnits="userSpaceOnUse">
<stop/>
<stop offset="1" stop-color="#6A9AE3"/>
</linearGradient>
<linearGradient id="paint5_linear_8_137" x1="48.7962" y1="29.0461" x2="48.7962" y2="31.8742" gradientUnits="userSpaceOnUse">
<stop/>
<stop offset="1" stop-color="#6A9AE3"/>
</linearGradient>
<linearGradient id="paint6_linear_8_137" x1="59.1025" y1="27.7559" x2="59.1025" y2="29.5357" gradientUnits="userSpaceOnUse">
<stop/>
<stop offset="1" stop-color="#6A9AE3"/>
</linearGradient>
<linearGradient id="paint7_linear_8_137" x1="59.4386" y1="15.8621" x2="59.4386" y2="26.8154" gradientUnits="userSpaceOnUse">
<stop/>
<stop offset="1" stop-color="#6A9AE3"/>
</linearGradient>
<linearGradient id="paint8_linear_8_137" x1="66.5706" y1="1" x2="66.5706" y2="40.9195" gradientUnits="userSpaceOnUse">
<stop/>
<stop offset="1" stop-color="#6A9AE3"/>
</linearGradient>
<clipPath id="clip0_8_137">
<rect width="71" height="85" fill="white"/>
</clipPath>
</defs>
</svg>
