<svg width="77" height="90" viewBox="0 0 77 90" fill="none" xmlns="http://www.w3.org/2000/svg">
<path d="M36.1094 70.8164H24.8594V82.4375H19V54H37.5157V58.7461H24.8594V66.0898H36.1094V70.8164Z" fill="#456CF3" fill-opacity="0.97"/>
<path d="M46.5446 82.3334C46.5446 82.3334 45.6171 73.754 45.6171 68.8847C45.6171 64.0153 45.6171 61.3487 43.994 56.9431C42.3709 52.5375 41.7912 46.8566 42.139 39.9004C42.4868 32.9441 42.9506 34.6832 42.7187 31.6688C42.4868 28.6544 41.8292 25.9879 42.0416 21.6982C42.255 17.4085 42.7187 14.742 44.9215 14.9739C47.1243 15.2057 45.6171 19.9592 45.6171 21.3504C45.6171 22.7416 45.965 26.1038 45.965 26.1038C45.965 26.1038 46.5446 31.7848 47.704 31.4369C48.8634 31.0891 49.4431 30.5094 49.3271 26.4516C49.2112 22.3938 49.9068 20.7707 50.1387 18.452C50.3706 16.1332 51.414 12.0754 51.7618 9.87261C52.1096 7.6698 53.4888 7.20606 54.3644 7.20606C55.2399 7.20606 56.0515 8.36543 55.5877 10.5682C55.124 12.771 54.8921 15.4376 54.8921 15.4376C54.8921 15.4376 54.996 22.162 54.3644 25.0604C53.7328 27.9588 55.0461 30.2776 55.7222 27.4951C56.3993 24.7126 55.9356 21.4663 56.2834 18.2201C56.6312 14.9739 57.9065 11.6117 58.3702 9.75667C58.834 7.90168 58.6021 4.88731 61.2687 5.00325C63.9352 5.11919 62.7759 9.75667 62.428 11.3798C62.0802 13.0029 62.0802 14.9739 61.7324 17.7563C61.3846 20.5388 59.2977 31.0891 61.9643 29.1182" stroke="url(#paint0_linear_8_160)" stroke-width="2" stroke-miterlimit="10" stroke-linecap="round" stroke-linejoin="round"/>
<path d="M63.9354 39.9003C63.9354 39.9003 61.6166 37.9293 61.7326 35.1469C61.8485 32.3644 62.0804 29.1181 63.9354 29.0022C65.7904 28.8862 65.9063 29.2341 66.486 33.1759C67.0657 37.1178 67.7613 34.3353 68.1091 38.9728C68.4569 43.6103 69.0366 45.2334 68.1091 47.2043C67.1816 49.1753 60.8051 55.5518 61.1529 60.4212C61.5007 65.2905 62.0804 67.2615 62.4282 72.5946C62.776 77.9277 64.8749 84.9999 64.8749 84.9999" stroke="url(#paint1_linear_8_160)" stroke-width="2" stroke-miterlimit="10" stroke-linecap="round" stroke-linejoin="round"/>
<path d="M62.979 29.4513C62.979 29.4513 61.1527 29.5051 62.0802 26.7996C63.0077 24.0941 63.4566 23.5923 64.8748 23.5923C66.2929 23.5923 68.7628 23.9401 68.6098 26.7615C68.6098 26.7615 68.6886 28.5396 66.3699 29.2732L65.6066 29.4513" stroke="url(#paint2_linear_8_160)" stroke-width="2" stroke-miterlimit="10" stroke-linecap="round" stroke-linejoin="round"/>
<path d="M68.2003 28.0083C68.2003 28.0083 68.1085 30.085 67.5677 31.747C67.027 33.4091 66.6542 34.3802 66.8406 34.8365" stroke="url(#paint3_linear_8_160)" stroke-width="2" stroke-miterlimit="10" stroke-linecap="round" stroke-linejoin="round"/>
<path d="M62.4356 37.9778C62.4356 37.9778 62.1379 39.9246 62.4356 41.8714" stroke="url(#paint4_linear_8_160)" stroke-width="2" stroke-miterlimit="10" stroke-linecap="round" stroke-linejoin="round"/>
<defs>
<linearGradient id="paint0_linear_8_160" x1="52.4894" y1="5" x2="52.4894" y2="82.3334" gradientUnits="userSpaceOnUse">
<stop/>
<stop offset="1" stop-color="#6A9AE3"/>
</linearGradient>
<linearGradient id="paint1_linear_8_160" x1="64.8746" y1="28.9844" x2="64.8746" y2="84.9999" gradientUnits="userSpaceOnUse">
<stop/>
<stop offset="1" stop-color="#6A9AE3"/>
</linearGradient>
<linearGradient id="paint2_linear_8_160" x1="65.217" y1="23.5923" x2="65.217" y2="29.4514" gradientUnits="userSpaceOnUse">
<stop/>
<stop offset="1" stop-color="#6A9AE3"/>
</linearGradient>
<linearGradient id="paint3_linear_8_160" x1="67.4962" y1="28.0083" x2="67.4962" y2="34.8365" gradientUnits="userSpaceOnUse">
<stop/>
<stop offset="1" stop-color="#6A9AE3"/>
</linearGradient>
<linearGradient id="paint4_linear_8_160" x1="62.3694" y1="37.9778" x2="62.3694" y2="41.8714" gradientUnits="userSpaceOnUse">
<stop/>
<stop offset="1" stop-color="#6A9AE3"/>
</linearGradient>
</defs>
</svg>
