<svg width="29" height="36" viewBox="0 0 29 36" fill="none" xmlns="http://www.w3.org/2000/svg">
<g clip-path="url(#clip0_6_66)">
<path d="M28.6875 30.6875C27.4219 32.2031 25.6328 33.3828 23.3203 34.2266C21.0078 35.0547 18.4453 35.4688 15.6328 35.4688C12.6797 35.4688 10.0859 34.8281 7.85156 33.5469C5.63281 32.25 3.91406 30.375 2.69531 27.9219C1.49219 25.4688 0.875 22.5859 0.84375 19.2734V16.9531C0.84375 13.5469 1.41406 10.6016 2.55469 8.11719C3.71094 5.61719 5.36719 3.71094 7.52344 2.39844C9.69531 1.07031 12.2344 0.40625 15.1406 0.40625C19.1875 0.40625 22.3516 1.375 24.6328 3.3125C26.9141 5.23438 28.2656 8.03906 28.6875 11.7266H21.8438C21.5312 9.77344 20.8359 8.34375 19.7578 7.4375C18.6953 6.53125 17.2266 6.07812 15.3516 6.07812C12.9609 6.07812 11.1406 6.97656 9.89062 8.77344C8.64062 10.5703 8.00781 13.2422 7.99219 16.7891V18.9688C7.99219 22.5469 8.67188 25.25 10.0312 27.0781C11.3906 28.9062 13.3828 29.8203 16.0078 29.8203C18.6484 29.8203 20.5312 29.2578 21.6562 28.1328V22.25H15.2578V17.0703H28.6875V30.6875Z" fill="#456CF3" fill-opacity="0.97"/>
</g>
<defs>
<clipPath id="clip0_6_66">
<rect width="29" height="36" fill="white"/>
</clipPath>
</defs>
</svg>
