<svg width="79" height="88" viewBox="0 0 79 88" fill="none" xmlns="http://www.w3.org/2000/svg">
<path d="M39.8037 77.1671C39.8037 77.1671 40.2546 64.7666 39.8037 60.3701C39.3528 55.9736 38 52.5916 38 50.4497C38 48.3078 38 45.8277 38 41.7694C38 37.711 39.9724 31.7363 40.0039 30.0453C39.9552 29.3202 39.8037 27.6779 40.0039 26.8888C40.2826 25.793 41.7201 24.6342 41.7201 22.9432C41.7201 21.2522 41.1565 17.8703 43.4111 15.9538C45.6658 14.0374 46.0039 14.2628 46.5676 12.4591C47.1313 10.6554 48.935 10.43 49.8368 9.97904C50.7387 9.52812 53.4442 7.61168 54.9097 6.2589C56.3753 4.90612 58.9681 3.66607 61.6736 3.10241C64.3792 2.53876 65.6193 1.74963 67.0848 1.52417C68.5503 1.29871 73.285 -0.279537 73.285 3.44061C73.285 7.16075 70.4667 7.83714 68.0993 8.739C65.732 9.64085 62.6882 10.9936 61.7864 11.5573C60.8845 12.1209 60.0954 13.9247 57.3898 14.7138" stroke="url(#paint0_linear_8_176)" stroke-width="2" stroke-miterlimit="10" stroke-linecap="round" stroke-linejoin="round"/>
<path d="M50.2876 21.9285C50.2876 21.9285 51.6765 23.0828 52.204 23.2812C53.0292 23.5906 53.6695 23.7322 56.1496 23.9576C58.6297 24.1831 63.9281 24.634 64.3791 27.1141C64.83 29.5942 64.4918 31.0597 63.2517 32.9762C62.0117 34.8926 60.9971 34.6671 60.9971 34.6671" stroke="url(#paint1_linear_8_176)" stroke-width="2" stroke-miterlimit="10" stroke-linecap="round" stroke-linejoin="round"/>
<path d="M59.042 13.9949V15.6904" stroke="url(#paint2_linear_8_176)" stroke-width="2" stroke-miterlimit="10" stroke-linecap="round" stroke-linejoin="round"/>
<path d="M68.0562 20.2216C68.0562 20.2216 68.8877 19.4487 71.0296 18.4341C73.1715 17.4195 76.9782 16.6683 77.6546 19.4866C78.331 22.3048 77.1171 23.3943 73.9606 25.7617C70.8041 28.129 69.8779 27.624 68.8877 27.3399" stroke="url(#paint3_linear_8_176)" stroke-width="2" stroke-miterlimit="10" stroke-linecap="round" stroke-linejoin="round"/>
<path d="M69.8775 27.6238C69.8775 27.6238 67.9854 30.4962 66.8581 31.7362C65.7308 32.9763 62.7231 39.8529 59.0417 41.2057C59.0417 41.2057 58.1435 41.6566 57.4283 42.7839C56.7131 43.9112 54.9094 46.0531 54.3458 47.0677C53.7821 48.0823 54.0076 52.7043 54.3458 56.7627C54.684 60.821 55.1277 65.5963 56.1495 69.0504C57.7512 74.4651 58.5529 77.5053 59.0426 81" stroke="url(#paint4_linear_8_176)" stroke-width="2" stroke-miterlimit="10" stroke-linecap="round" stroke-linejoin="round"/>
<path d="M46.2295 29.5945C46.2295 29.5945 49.4987 31.2855 52.4297 31.9618C55.3608 32.6382 62.6883 32.6382 60.6591 37.8239C58.63 43.0095 50.0624 39.6673 48.4841 39.0838" stroke="url(#paint5_linear_8_176)" stroke-width="2" stroke-miterlimit="10" stroke-linecap="round" stroke-linejoin="round"/>
<path d="M51.7669 40.1362C51.7669 40.1362 50.9642 45.0387 46.2295 46.3915" stroke="url(#paint6_linear_8_176)" stroke-width="2" stroke-miterlimit="10" stroke-linecap="round" stroke-linejoin="round"/>
<path d="M50.2876 13.3608C50.2876 13.3608 52.204 14.9391 55.6419 15.5027C59.0807 16.0664 62.9135 16.1791 65.3936 16.8555C65.3936 16.8555 68.6629 17.3443 67.761 23.2064C66.8592 29.0684 65.2331 29.5193 64.5432 29.5942" stroke="url(#paint7_linear_8_176)" stroke-width="2" stroke-miterlimit="10" stroke-linecap="round" stroke-linejoin="round"/>
<path d="M30.2031 73.2343C29.1485 74.4974 27.6576 75.4804 25.7305 76.1836C23.8034 76.8737 21.668 77.2187 19.3242 77.2187C16.8633 77.2187 14.7018 76.6849 12.8399 75.6172C10.9909 74.5364 9.5586 72.9739 8.543 70.9297C7.5404 68.8854 7.0261 66.483 7 63.7226V61.789C7 58.9505 7.4753 56.4961 8.4258 54.4258C9.3893 52.3424 10.7696 50.7539 12.5664 49.6601C14.3763 48.5534 16.4922 48 18.9141 48C22.2865 48 24.9232 48.8073 26.8242 50.4219C28.7253 52.0234 29.8516 54.3607 30.2031 57.4336H24.5C24.2396 55.806 23.6602 54.6146 22.7617 53.8593C21.8763 53.1041 20.6524 52.7265 19.0899 52.7265C17.0977 52.7265 15.5808 53.4752 14.5391 54.9726C13.4974 56.47 12.9701 58.6966 12.9571 61.6523V63.4687C12.9571 66.4505 13.5235 68.7031 14.6563 70.2265C15.7891 71.75 17.4492 72.5117 19.6367 72.5117C21.8373 72.5117 23.4063 72.0429 24.3438 71.1054V66.2031H19.0117V61.8867H30.2031V73.2343Z" fill="#456CF3" fill-opacity="0.97"/>
<defs>
<linearGradient id="paint0_linear_8_176" x1="55.6425" y1="1" x2="55.6425" y2="77.1671" gradientUnits="userSpaceOnUse">
<stop/>
<stop offset="1" stop-color="#6A9AE3"/>
</linearGradient>
<linearGradient id="paint1_linear_8_176" x1="57.4287" y1="21.9285" x2="57.4287" y2="34.6753" gradientUnits="userSpaceOnUse">
<stop/>
<stop offset="1" stop-color="#6A9AE3"/>
</linearGradient>
<linearGradient id="paint2_linear_8_176" x1="59.542" y1="13.9949" x2="59.542" y2="15.6904" gradientUnits="userSpaceOnUse">
<stop/>
<stop offset="1" stop-color="#6A9AE3"/>
</linearGradient>
<linearGradient id="paint3_linear_8_176" x1="72.946" y1="17.5208" x2="72.946" y2="27.5897" gradientUnits="userSpaceOnUse">
<stop/>
<stop offset="1" stop-color="#6A9AE3"/>
</linearGradient>
<linearGradient id="paint4_linear_8_176" x1="61.94" y1="27.6238" x2="61.94" y2="81" gradientUnits="userSpaceOnUse">
<stop/>
<stop offset="1" stop-color="#6A9AE3"/>
</linearGradient>
<linearGradient id="paint5_linear_8_176" x1="53.6193" y1="29.5945" x2="53.6193" y2="40.6811" gradientUnits="userSpaceOnUse">
<stop/>
<stop offset="1" stop-color="#6A9AE3"/>
</linearGradient>
<linearGradient id="paint6_linear_8_176" x1="48.9982" y1="40.1362" x2="48.9982" y2="46.3915" gradientUnits="userSpaceOnUse">
<stop/>
<stop offset="1" stop-color="#6A9AE3"/>
</linearGradient>
<linearGradient id="paint7_linear_8_176" x1="59.103" y1="13.3608" x2="59.103" y2="29.5942" gradientUnits="userSpaceOnUse">
<stop/>
<stop offset="1" stop-color="#6A9AE3"/>
</linearGradient>
</defs>
</svg>
