<svg width="94" height="93" viewBox="0 0 94 93" fill="none" xmlns="http://www.w3.org/2000/svg">
<path d="M53.2056 21.7664C53.2056 21.7664 58.4315 26.9148 59.5842 27.2994C60.7369 27.6839 62.5813 27.6065 63.6574 26.4538C64.7336 25.301 66.0394 23.9178 64.8867 22.458C63.734 20.9982 60.5064 18.2317 60.5064 18.2317C60.5064 18.2317 58.816 16.6944 57.8164 15.9263" stroke="url(#paint0_linear_8_290)" stroke-width="2" stroke-miterlimit="10" stroke-linecap="round" stroke-linejoin="round"/>
<path d="M49.0557 22.0735C49.0557 22.0735 51.255 24.5311 54.881 23.3793" stroke="url(#paint1_linear_8_290)" stroke-width="2" stroke-miterlimit="10" stroke-linecap="round" stroke-linejoin="round"/>
<path d="M68.8056 25.7621C68.8056 25.7621 70.3429 28.5489 72.8789 27.0015C75.4148 25.4541 77.1052 23.6863 77.1052 23.6863L78.873 22.0735L81.3324 20.0751C81.3324 20.0751 82.6391 18.9713 81.6395 17.0015C80.5292 14.8114 73.5705 8.93255 71.4956 7.08821C71.4956 7.08821 69.2667 5.01333 66.9613 2.70791C64.6559 0.402486 62.3505 2.55391 61.2743 3.24553C60.1981 3.93716 58.2772 6.08858 56.2789 7.3953C54.2806 8.70201 54.1127 9.39364 51.9678 11.084C49.8237 12.7743 42.7534 17.7466 41.9078 21.7157C41.4513 23.8597 41.3702 23.9943 41.0622 25.6847C40.7551 27.375 41.6773 28.2206 41.8303 29.9884C41.9834 31.7562 42.9065 60.8046 42.676 62.1878C42.4454 63.5711 42.3689 75.7133 42.522 80.1701" stroke="url(#paint2_linear_8_290)" stroke-width="2" stroke-miterlimit="10" stroke-linecap="round" stroke-linejoin="round"/>
<path d="M47.2881 30.0657C47.2881 30.0657 49.9006 31.603 53.9738 30.6033C58.047 29.6046 57.3554 29.6812 58.6612 29.5272C59.967 29.3732 61.4277 29.873 63.0415 29.873C64.6553 29.873 68.8051 28.9951 70.8799 28.8936C72.9548 28.7922 76.259 29.434 78.7184 30.9409C78.7184 30.9409 81.1391 32.7548 84.3667 33.735C87.5943 34.7144 88.4454 34.1223 88.4454 34.1223" stroke="url(#paint3_linear_8_290)" stroke-width="2" stroke-miterlimit="10" stroke-linecap="round" stroke-linejoin="round"/>
<path d="M78.8726 22.4351C80.6247 23.929 79.649 23.2539 82.2385 24.4334" stroke="url(#paint4_linear_8_290)" stroke-width="2" stroke-miterlimit="10" stroke-linecap="round" stroke-linejoin="round"/>
<path d="M58.0004 29.6121C58.0004 29.6121 57.1253 36.2895 58.4311 43.3598C59.7369 50.43 60.506 53.9647 61.6587 58.8061C62.8114 63.6475 63.1185 63.1099 64.8097 68.3349C66.5001 73.5608 68.883 80.9999 68.883 80.9999" stroke="url(#paint5_linear_8_290)" stroke-width="2" stroke-miterlimit="10" stroke-linecap="round" stroke-linejoin="round"/>
<path d="M66.9609 2.70786C66.9609 2.70786 70.9567 -1.13482 73.9537 2.70786C74.5965 3.53228 78.1035 7.08816 78.1035 7.08816C78.1035 7.08816 83.7131 12.2366 85.0198 14.0044C86.3265 15.7722 86.9407 19.1529 88.8625 23.0721C90.7833 26.9913 94.78 33.062 91.475 34.2921C87.4875 35.7759 85.5574 30.68 84.3282 28.2981C83.0989 25.9161 82.2533 23.9177 81.5616 22.8803C80.87 21.8429 80.0705 21.0996 80.0705 21.0996" stroke="url(#paint6_linear_8_290)" stroke-width="2" stroke-miterlimit="10" stroke-linecap="round" stroke-linejoin="round"/>
<path d="M66.4997 12.1599C66.4997 12.1599 67.3454 13.0055 68.8817 14.1583C70.4189 15.311 73.7996 18.0009 73.9536 19.3842C74.1076 20.7674 74.9523 22.1507 69.6499 24.9937C69.6499 24.9937 66.5274 26.9248 64.707 25.2298" stroke="url(#paint7_linear_8_290)" stroke-width="2" stroke-miterlimit="10" stroke-linecap="round" stroke-linejoin="round"/>
<path d="M32.2188 62.2539C32.2188 64.9101 31.7891 67.2213 30.9297 69.1875C30.0703 71.1406 28.8789 72.7096 27.3555 73.8945L32.0821 77.6054L28.3516 80.9062L22.2969 76.0429C21.6068 76.1601 20.8907 76.2187 20.1485 76.2187C17.7917 76.2187 15.6888 75.6523 13.8399 74.5195C11.9909 73.3867 10.5586 71.7721 9.543 69.6758C8.5274 67.5664 8.0131 65.1445 8 62.4101V61.0039C8 58.2044 8.5013 55.7435 9.5039 53.6211C10.5196 51.4857 11.9453 49.8515 13.7813 48.7187C15.6302 47.5729 17.7396 47 20.1094 47C22.4792 47 24.5821 47.5729 26.418 48.7187C28.267 49.8515 29.6927 51.4857 30.6953 53.6211C31.711 55.7435 32.2188 58.1979 32.2188 60.9843V62.2539ZM26.2813 60.9648C26.2813 57.983 25.7474 55.7174 24.6797 54.1679C23.612 52.6185 22.0886 51.8437 20.1094 51.8437C18.1433 51.8437 16.6263 52.612 15.5586 54.1484C14.4909 55.6719 13.9506 57.9114 13.9375 60.8672V62.2539C13.9375 65.1575 14.4714 67.4101 15.5391 69.0117C16.6068 70.6133 18.1433 71.414 20.1485 71.414C22.1146 71.414 23.625 70.6458 24.6797 69.1093C25.7344 67.5599 26.2683 65.3073 26.2813 62.3515V60.9648Z" fill="#456CF3" fill-opacity="0.97"/>
<defs>
<linearGradient id="paint0_linear_8_290" x1="59.2707" y1="15.9263" x2="59.2707" y2="27.5073" gradientUnits="userSpaceOnUse">
<stop/>
<stop offset="1" stop-color="#6A9AE3"/>
</linearGradient>
<linearGradient id="paint1_linear_8_290" x1="51.9684" y1="22.0735" x2="51.9684" y2="23.6865" gradientUnits="userSpaceOnUse">
<stop/>
<stop offset="1" stop-color="#6A9AE3"/>
</linearGradient>
<linearGradient id="paint2_linear_8_290" x1="61.508" y1="1.66895" x2="61.508" y2="80.1701" gradientUnits="userSpaceOnUse">
<stop/>
<stop offset="1" stop-color="#6A9AE3"/>
</linearGradient>
<linearGradient id="paint3_linear_8_290" x1="67.8667" y1="28.8833" x2="67.8667" y2="34.2997" gradientUnits="userSpaceOnUse">
<stop/>
<stop offset="1" stop-color="#6A9AE3"/>
</linearGradient>
<linearGradient id="paint4_linear_8_290" x1="80.5555" y1="22.4351" x2="80.5555" y2="24.4334" gradientUnits="userSpaceOnUse">
<stop/>
<stop offset="1" stop-color="#6A9AE3"/>
</linearGradient>
<linearGradient id="paint5_linear_8_290" x1="63.2982" y1="29.6121" x2="63.2982" y2="80.9999" gradientUnits="userSpaceOnUse">
<stop/>
<stop offset="1" stop-color="#6A9AE3"/>
</linearGradient>
<linearGradient id="paint6_linear_8_290" x1="79.8505" y1="1" x2="79.8505" y2="34.5583" gradientUnits="userSpaceOnUse">
<stop/>
<stop offset="1" stop-color="#6A9AE3"/>
</linearGradient>
<linearGradient id="paint7_linear_8_290" x1="69.4012" y1="12.1599" x2="69.4012" y2="25.9265" gradientUnits="userSpaceOnUse">
<stop/>
<stop offset="1" stop-color="#6A9AE3"/>
</linearGradient>
</defs>
</svg>
