<svg width="68" height="96" viewBox="0 0 68 96" fill="none" xmlns="http://www.w3.org/2000/svg">
<g clip-path="url(#clip0_8_328)">
<path d="M42.1217 79.9991C42.1217 79.9991 40.5571 67.1665 40.3336 63.888C40.11 60.6095 40.2593 57.9273 39.7372 57.0332C39.216 56.1391 35.4162 48.7631 35.1176 44.5163C34.8199 40.2695 34 37.438 34 35.6499C34 33.8617 35.1176 30.0619 35.3411 28.6466C35.5646 27.2313 35.8623 24.5491 37.1292 24.2505C38.3961 23.9528 39.8856 24.027 40.7055 24.2505C41.5253 24.474 42.9407 25.4423 42.9407 25.4423" stroke="url(#paint0_linear_8_328)" stroke-width="2" stroke-miterlimit="10" stroke-linecap="round" stroke-linejoin="round"/>
<path d="M38.4702 27.1572C38.4702 27.1572 40.7054 30.4724 43.5735 30.1747" stroke="url(#paint1_linear_8_328)" stroke-width="2" stroke-miterlimit="10" stroke-linecap="round" stroke-linejoin="round"/>
<path d="M37.6885 31.9252C37.6885 31.9252 39.1896 32.0629 41.1959 29.6471" stroke="url(#paint2_linear_8_328)" stroke-width="2" stroke-miterlimit="10" stroke-linecap="round" stroke-linejoin="round"/>
<path d="M39.9042 24.0548C39.9042 24.0548 39.8487 19.3896 39.9042 17.2107C39.9596 15.0319 39.9104 13.4664 39.8791 10.5052C39.8479 7.5441 39.9086 5.36437 41.5832 5.25261C43.2569 5.14085 44.2627 6.03491 44.2073 12.0135C44.1519 17.9921 45.2695 20.0047 45.3249 23.0776" stroke="url(#paint3_linear_8_328)" stroke-width="2" stroke-miterlimit="10" stroke-linecap="round" stroke-linejoin="round"/>
<path d="M47.0015 25.1456L47.3931 19.3342C47.3931 19.3342 47.5048 17.3225 47.9519 15.1991C48.3989 13.0757 48.7905 10.617 48.7905 9.0524C48.7905 7.48779 49.3493 3.91153 49.3493 2.23516C49.3493 0.55879 50.4114 0 51.3609 0C52.3104 0 53.875 0.50246 53.875 4.35857C53.875 8.21467 53.8196 13.2992 53.3726 18.1611C52.9255 23.0231 52.5903 22.129 52.4785 25.1465" stroke="url(#paint4_linear_8_328)" stroke-width="2" stroke-miterlimit="10" stroke-linecap="round" stroke-linejoin="round"/>
<path d="M51.1367 25.8716C51.1367 25.8716 54.0424 25.59 54.6575 24.0549C55.2727 22.5188 55.8306 19.7249 56.7246 17.7132C57.6187 15.7016 58.2892 13.5782 58.9044 11.8464C59.5195 10.1146 60.469 3.63173 62.9831 4.3586C65.4972 5.08548 64.4359 8.54998 63.5419 12.5733C62.6478 16.5966 62.3689 18.8317 60.7479 23.4138C59.127 27.9959 59.2387 27.3325 59.0715 29.6481C58.9044 31.9638 58.7926 35.1484 58.848 37.1601C58.9035 39.1717 58.4564 41.1279 58.3456 44.9277C58.2347 48.7275 57.7304 50.858 57.1162 52.0284C56.5011 53.1978 56.4457 53.4776 56.9481 60.1268C57.4506 66.776 57.7304 68.3969 58.0657 70.6875C58.401 72.9781 60.2455 80.0001 60.2455 80.0001" stroke="url(#paint5_linear_8_328)" stroke-width="2" stroke-miterlimit="10" stroke-linecap="round" stroke-linejoin="round"/>
<path d="M49.1247 37.1038C49.1247 37.1038 47.1685 39.8414 47.5047 44.6479" stroke="url(#paint6_linear_8_328)" stroke-width="2" stroke-miterlimit="10" stroke-linecap="round" stroke-linejoin="round"/>
<path d="M53.4269 42.1507C53.4269 42.1507 50.6375 39.8503 49.1247 36.8239C47.8954 34.3652 46.219 34.7568 44.1519 31.236C44.1519 31.236 41.9892 26.9507 43.5743 24.0548C45.1595 21.1589 47.6718 26.4304 48.5659 27.6597C49.46 28.889 51.5834 31.1805 52.5338 32.3535C53.4842 33.5265 54.4524 34.4841 55.4395 35.2959C56.7028 36.3339 58.6912 37.4166 58.7699 39.1878" stroke="url(#paint7_linear_8_328)" stroke-width="2" stroke-miterlimit="10" stroke-linecap="round" stroke-linejoin="round"/>
<path d="M24.0039 72.2344L27.832 52H33.6719L27.3633 80.4375H21.4648L16.8359 61.4141L12.207 80.4375H6.3086L0 52H5.83985L9.68751 72.1953L14.375 52H19.3359L24.0039 72.2344Z" fill="#456CF3" fill-opacity="0.97"/>
</g>
<defs>
<linearGradient id="paint0_linear_8_328" x1="38.4704" y1="24.0541" x2="38.4704" y2="79.9991" gradientUnits="userSpaceOnUse">
<stop/>
<stop offset="1" stop-color="#6A9AE3"/>
</linearGradient>
<linearGradient id="paint1_linear_8_328" x1="41.0219" y1="27.1572" x2="41.0219" y2="30.1936" gradientUnits="userSpaceOnUse">
<stop/>
<stop offset="1" stop-color="#6A9AE3"/>
</linearGradient>
<linearGradient id="paint2_linear_8_328" x1="39.4422" y1="29.6471" x2="39.4422" y2="31.9266" gradientUnits="userSpaceOnUse">
<stop/>
<stop offset="1" stop-color="#6A9AE3"/>
</linearGradient>
<linearGradient id="paint3_linear_8_328" x1="42.5995" y1="5.2439" x2="42.5995" y2="24.0548" gradientUnits="userSpaceOnUse">
<stop/>
<stop offset="1" stop-color="#6A9AE3"/>
</linearGradient>
<linearGradient id="paint4_linear_8_328" x1="50.4383" y1="0" x2="50.4383" y2="25.1465" gradientUnits="userSpaceOnUse">
<stop/>
<stop offset="1" stop-color="#6A9AE3"/>
</linearGradient>
<linearGradient id="paint5_linear_8_328" x1="57.842" y1="4.302" x2="57.842" y2="80.0001" gradientUnits="userSpaceOnUse">
<stop/>
<stop offset="1" stop-color="#6A9AE3"/>
</linearGradient>
<linearGradient id="paint6_linear_8_328" x1="48.2952" y1="37.1038" x2="48.2952" y2="44.6479" gradientUnits="userSpaceOnUse">
<stop/>
<stop offset="1" stop-color="#6A9AE3"/>
</linearGradient>
<linearGradient id="paint7_linear_8_328" x1="50.8818" y1="23.1979" x2="50.8818" y2="42.1507" gradientUnits="userSpaceOnUse">
<stop/>
<stop offset="1" stop-color="#6A9AE3"/>
</linearGradient>
<clipPath id="clip0_8_328">
<rect width="68" height="96" fill="white"/>
</clipPath>
</defs>
</svg>
