<svg width="74" height="94" viewBox="0 0 74 94" fill="none" xmlns="http://www.w3.org/2000/svg">
<path d="M46.6438 80.9981C46.6438 80.9981 45.9732 69.1704 45.8615 64.4762C45.7497 59.7819 45.8615 57.2113 45.8615 55.0877C45.8615 52.9641 44.5203 47.9346 44.0732 46.4816C43.6261 45.0286 42.5084 42.7933 42.5084 35.7519C42.5084 35.7519 42.3403 32.7342 42.1168 31.1131C41.8933 29.492 41.8933 27.1449 43.0109 25.9718C44.1286 24.7987 45.2463 24.6306 52.7347 24.686L54.4676 24.6771C54.4676 24.6771 56.8147 24.5743 57.429 27.9273C58.0432 31.2803 59.1055 33.2367 57.429 34.7451C55.7524 36.2535 51.7011 36.2902 51.6725 33.2573" stroke="url(#paint0_linear_8_338)" stroke-width="2" stroke-miterlimit="10" stroke-linecap="round" stroke-linejoin="round"/>
<path d="M44.7437 34.0192H48.5992C48.5992 34.0192 51.2262 34.131 51.9522 32.4545" stroke="url(#paint1_linear_8_338)" stroke-width="2" stroke-miterlimit="10" stroke-linecap="round" stroke-linejoin="round"/>
<path d="M51.9528 30.6107C51.9528 30.6107 51.7293 32.3445 52.847 33.2377" stroke="url(#paint2_linear_8_338)" stroke-width="2" stroke-miterlimit="10" stroke-linecap="round" stroke-linejoin="round"/>
<path d="M46.3643 29.4932C46.3643 29.4932 49.8568 32.4 52.0501 31.9243" stroke="url(#paint3_linear_8_338)" stroke-width="2" stroke-miterlimit="10" stroke-linecap="round" stroke-linejoin="round"/>
<path d="M44.9674 24.6773C44.9674 24.6773 44.6321 22.2837 46.9238 21.6131C47.6114 21.4119 48.3901 21.1955 49.2074 20.9711C51.1137 20.4489 53.2337 19.8856 54.9147 19.3777C57.3181 18.6517 59.9442 18.4281 60.7266 20.9979C61.509 23.5677 63.2973 29.8839 62.3468 31.3923C61.3963 32.9007 60.6139 33.126 59.7198 33.2369C58.8257 33.3478 58.3303 32.957 58.3303 32.957" stroke="url(#paint4_linear_8_338)" stroke-width="2" stroke-miterlimit="10" stroke-linecap="round" stroke-linejoin="round"/>
<path d="M69.2765 23.2341C69.2765 23.2341 66.6495 24.7988 65.0847 23.2341C63.52 21.6693 61.7872 20.1046 61.6763 16.3045C61.5654 12.5044 63.5763 12.6162 64.5822 13.7902C65.5881 14.9642 67.8798 17.1432 69.2765 17.7584C70.6731 18.3735 72.0707 19.7147 72.127 21.503C72.1833 23.2913 72.406 28.936 72.6295 30.6125C72.853 32.289 72.127 33.5739 71.4564 34.8597C70.7858 36.1455 69.9471 39.1069 69.0529 42.2363C68.1588 45.3658 64.694 48.6071 64.694 52.519C64.694 56.4308 64.1915 63.5276 65.1965 69.3395C66.2015 75.1514 67.0214 78.466 67.1708 81" stroke="url(#paint5_linear_8_338)" stroke-width="2" stroke-miterlimit="10" stroke-linecap="round" stroke-linejoin="round"/>
<path d="M49.207 20.7188C49.207 20.7188 49.326 19.4331 51.0025 18.4281C52.679 17.423 54.132 15.8574 55.6967 14.6834C57.2614 13.5094 59.0497 11.4985 60.6699 12.1691C62.2901 12.8397 62.6182 13.2403 62.6182 13.2403" stroke="url(#paint6_linear_8_338)" stroke-width="2" stroke-miterlimit="10" stroke-linecap="round" stroke-linejoin="round"/>
<path d="M55.9127 14.5172C55.9127 14.5172 55.1938 12.0011 55.0257 11.275C54.8576 10.549 53.7399 7.02787 55.0257 5.57489C56.3115 4.12191 57.4846 3.67484 58.714 2.66894C59.9435 1.66303 61.2847 0.0982805 63.4637 1.66303C65.6427 3.22777 67.1708 4.28912 67.1708 4.28912C67.1708 4.28912 68.7543 5.35136 67.1708 6.9161C65.5873 8.48085 61.1729 7.81024 59.9989 6.13373" stroke="url(#paint7_linear_8_338)" stroke-width="2" stroke-miterlimit="10" stroke-linecap="round" stroke-linejoin="round"/>
<path d="M62.2353 7.75818C62.2353 7.75818 61.5791 9.87729 58.3306 9.09492C58.3306 9.09492 57.2612 8.70328 56.647 8.14534" stroke="url(#paint8_linear_8_338)" stroke-width="2" stroke-miterlimit="10" stroke-linecap="round" stroke-linejoin="round"/>
<path d="M61.6719 8.98315C61.6719 8.98315 61.9562 10.1008 62.2352 12.6715" stroke="url(#paint9_linear_8_338)" stroke-width="2" stroke-miterlimit="10" stroke-linecap="round" stroke-linejoin="round"/>
<path d="M62.6187 28.6543C62.6187 28.6543 65.4763 28.2072 65.8116 26.587C66.1469 24.9669 65.8116 23.7213 65.8116 23.7213" stroke="url(#paint10_linear_8_338)" stroke-width="2" stroke-miterlimit="10" stroke-linecap="round" stroke-linejoin="round"/>
<path d="M64.8933 27.804C64.8933 27.804 64.7135 28.5425 65.9609 30.2754" stroke="url(#paint11_linear_8_338)" stroke-width="2" stroke-miterlimit="10" stroke-linecap="round" stroke-linejoin="round"/>
<path d="M25 62.3672L30.332 52.5625H37.0703L28.7891 66.6641L37.2852 81H30.4688L25 71.0391L19.5312 81H12.7148L21.2109 66.6641L12.9297 52.5625H19.668L25 62.3672Z" fill="#456CF3" fill-opacity="0.97"/>
<defs>
<linearGradient id="paint0_linear_8_338" x1="50.1651" y1="24.6768" x2="50.1651" y2="80.9981" gradientUnits="userSpaceOnUse">
<stop/>
<stop offset="1" stop-color="#6A9AE3"/>
</linearGradient>
<linearGradient id="paint1_linear_8_338" x1="48.348" y1="32.4545" x2="48.348" y2="34.0207" gradientUnits="userSpaceOnUse">
<stop/>
<stop offset="1" stop-color="#6A9AE3"/>
</linearGradient>
<linearGradient id="paint2_linear_8_338" x1="52.3908" y1="30.6107" x2="52.3908" y2="33.2377" gradientUnits="userSpaceOnUse">
<stop/>
<stop offset="1" stop-color="#6A9AE3"/>
</linearGradient>
<linearGradient id="paint3_linear_8_338" x1="49.2072" y1="29.4932" x2="49.2072" y2="31.9769" gradientUnits="userSpaceOnUse">
<stop/>
<stop offset="1" stop-color="#6A9AE3"/>
</linearGradient>
<linearGradient id="paint4_linear_8_338" x1="53.7843" y1="18.8933" x2="53.7843" y2="33.2567" gradientUnits="userSpaceOnUse">
<stop/>
<stop offset="1" stop-color="#6A9AE3"/>
</linearGradient>
<linearGradient id="paint5_linear_8_338" x1="67.1713" y1="13.0676" x2="67.1713" y2="81" gradientUnits="userSpaceOnUse">
<stop/>
<stop offset="1" stop-color="#6A9AE3"/>
</linearGradient>
<linearGradient id="paint6_linear_8_338" x1="55.9126" y1="12.0354" x2="55.9126" y2="20.7188" gradientUnits="userSpaceOnUse">
<stop/>
<stop offset="1" stop-color="#6A9AE3"/>
</linearGradient>
<linearGradient id="paint7_linear_8_338" x1="61.1448" y1="1" x2="61.1448" y2="14.5172" gradientUnits="userSpaceOnUse">
<stop/>
<stop offset="1" stop-color="#6A9AE3"/>
</linearGradient>
<linearGradient id="paint8_linear_8_338" x1="59.4412" y1="7.75818" x2="59.4412" y2="9.2683" gradientUnits="userSpaceOnUse">
<stop/>
<stop offset="1" stop-color="#6A9AE3"/>
</linearGradient>
<linearGradient id="paint9_linear_8_338" x1="61.9536" y1="8.98315" x2="61.9536" y2="12.6715" gradientUnits="userSpaceOnUse">
<stop/>
<stop offset="1" stop-color="#6A9AE3"/>
</linearGradient>
<linearGradient id="paint10_linear_8_338" x1="64.2897" y1="23.7213" x2="64.2897" y2="28.6543" gradientUnits="userSpaceOnUse">
<stop/>
<stop offset="1" stop-color="#6A9AE3"/>
</linearGradient>
<linearGradient id="paint11_linear_8_338" x1="65.4226" y1="27.804" x2="65.4226" y2="30.2754" gradientUnits="userSpaceOnUse">
<stop/>
<stop offset="1" stop-color="#6A9AE3"/>
</linearGradient>
</defs>
</svg>
