<svg width="130" height="89" viewBox="0 0 130 89" fill="none" xmlns="http://www.w3.org/2000/svg">
<path d="M43 84.9999C43 84.9999 44.1123 62.9771 44.1123 59.4178C44.1123 55.8586 44.6684 44.0686 44.6684 42.1777C44.6684 40.2868 43.8898 38.2848 43.8338 36.6164C43.8338 36.6164 43.8338 34.8919 44.2235 33.002C44.6132 31.112 45.2806 26.8845 45.9479 25.4937C46.6153 24.1029 47.2275 23.5468 47.6724 22.3794C48.1173 21.2119 49.3969 19.5987 50.898 18.4304C52.3991 17.2621 52.4551 16.0386 53.345 14.8711C54.2348 13.7037 55.1798 13.4252 56.292 12.7018C57.4043 11.9784 58.1268 8.86489 59.6288 8.14148C61.1308 7.41806 63.2432 7.69657 65.135 7.41895C67.0267 7.14133 67.4147 5.24958 69.3064 5.02713C71.1982 4.80468 72.3095 6.02817 74.6453 5.86178C76.9811 5.69538 80.9852 5.80661 82.8209 5.75055C84.6566 5.69449 84.4893 6.52914 87.4372 6.58519C90.3852 6.64125 92.22 7.69746 93.5547 7.69746C94.8894 7.69746 96.7803 8.0872 96.5018 10.1996C96.2233 12.312 93.4426 13.2588 91.4966 13.2588C89.5505 13.2588 83.878 13.1476 81.7638 13.6485C79.6496 14.1495 75.9249 14.872 74.8678 16.5404" stroke="url(#paint0_linear_8_352)" stroke-width="2" stroke-miterlimit="10" stroke-linecap="round" stroke-linejoin="round"/>
<path d="M71.2515 12.3138C71.2515 12.3138 71.8637 13.6486 73.0311 14.816C74.1985 15.9834 78.0923 19.6548 78.6476 21.9345C79.2028 24.2142 78.7588 24.4366 77.5905 25.605C76.4222 26.7733 74.421 29.1091 71.9179 29.4427" stroke="url(#paint1_linear_8_352)" stroke-width="2" stroke-miterlimit="10" stroke-linecap="round" stroke-linejoin="round"/>
<path d="M64.0767 16.818C64.0767 16.818 64.4103 17.7078 64.6328 18.5976C64.8552 19.4874 65.6338 20.0996 66.69 21.3222C67.7462 22.5448 70.8054 25.2152 71.7513 27.7734C72.6972 30.3316 70.4166 31.3887 68.4145 32.3897C66.4124 33.3908 64.5776 32.7234 64.5776 32.7234" stroke="url(#paint2_linear_8_352)" stroke-width="2" stroke-miterlimit="10" stroke-linecap="round" stroke-linejoin="round"/>
<path d="M55.9016 21.4346C55.9016 21.4346 57.7925 23.6591 59.7385 25.4387C61.6845 27.2184 65.6335 31.501 64.0763 33.3358C62.5192 35.1706 60.3498 36.0604 58.1253 34.7818C55.9007 33.5031 55.1221 31.0552 53.2865 30.9449C51.4508 30.8346 49.3935 29.8878 48.8374 29.4429" stroke="url(#paint3_linear_8_352)" stroke-width="2" stroke-miterlimit="10" stroke-linecap="round" stroke-linejoin="round"/>
<path d="M50.5635 23.6631C50.5635 23.6631 51.2442 25.3671 54.0738 27.1565" stroke="url(#paint4_linear_8_352)" stroke-width="2" stroke-miterlimit="10" stroke-linecap="round" stroke-linejoin="round"/>
<path d="M78.886 23.3805C78.886 23.3805 83.3191 23.7702 85.1547 25.605C86.9904 27.4398 86.0766 29.7533 85.4324 30.4438C84.6538 31.2785 83.0966 31.6113 80.2047 31.7234C77.3128 31.8355 75.478 29.4108 75.478 29.4108" stroke="url(#paint5_linear_8_352)" stroke-width="2" stroke-miterlimit="10" stroke-linecap="round" stroke-linejoin="round"/>
<path d="M48.8384 38.5072C48.8384 38.5072 52.3976 40.2317 57.014 38.5072C61.6303 36.7828 59.8391 37.9858 62.4641 36.5603C64.6334 35.3822 63.854 36.393 66.4131 36.1154C68.9722 35.8378 71.2519 34.5031 72.6418 33.3908C74.0316 32.2785 74.4214 32.1113 75.4785 31.7785C76.5356 31.4457 77.6701 31.1565 77.6701 31.1565" stroke="url(#paint6_linear_8_352)" stroke-width="2" stroke-miterlimit="10" stroke-linecap="round" stroke-linejoin="round"/>
<path d="M61.5612 37.0355C61.5612 37.0355 60.23 38.6194 60.2398 40.2317C60.2451 41.1233 60.351 47.239 61.1296 51.632C61.9082 56.025 63.1869 65.1465 63.9103 68.7609C64.6337 72.3753 68.3593 83.6101 68.3593 85" stroke="url(#paint7_linear_8_352)" stroke-width="2" stroke-miterlimit="10" stroke-linecap="round" stroke-linejoin="round"/>
<path d="M21.6211 77.293H35.957V82H14.2969V78.5625L28.3594 58.3086H14.3164V53.5625H35.6445V56.9219L21.6211 77.293Z" fill="#456CF3" fill-opacity="0.97"/>
<mask id="path-10-inside-1_8_352" fill="white">
<path d="M99.6464 8.64643C99.4512 8.84169 99.4512 9.15827 99.6464 9.35353L102.828 12.5355C103.024 12.7308 103.34 12.7308 103.536 12.5355C103.731 12.3402 103.731 12.0237 103.536 11.8284L100.707 8.99998L103.536 6.17155C103.731 5.97629 103.731 5.65971 103.536 5.46445C103.34 5.26918 103.024 5.26918 102.828 5.46445L99.6464 8.64643ZM128.5 8.99998L128.83 9.37586L129.828 8.49998H128.5V8.99998ZM100 34L99.6703 33.6241L98.6718 34.5H100V34ZM128.854 34.3536C129.049 34.1583 129.049 33.8417 128.854 33.6464L125.672 30.4645C125.476 30.2692 125.16 30.2692 124.964 30.4645C124.769 30.6597 124.769 30.9763 124.964 31.1716L127.793 34L124.964 36.8284C124.769 37.0237 124.769 37.3403 124.964 37.5355C125.16 37.7308 125.476 37.7308 125.672 37.5355L128.854 34.3536ZM100 9.49998H101.425V8.49998H100V9.49998ZM104.275 9.49998H107.125V8.49998H104.275V9.49998ZM109.975 9.49998H112.825V8.49998H109.975V9.49998ZM115.675 9.49998H118.525V8.49998H115.675V9.49998ZM121.375 9.49998H124.225V8.49998H121.375V9.49998ZM127.075 9.49998H128.5V8.49998H127.075V9.49998ZM128.17 8.6241L126.983 9.66577L127.642 10.4175L128.83 9.37586L128.17 8.6241ZM124.608 11.7491L122.233 13.8324L122.892 14.5842L125.267 12.5009L124.608 11.7491ZM119.858 15.9158L117.483 17.9991L118.142 18.7509L120.517 16.6675L119.858 15.9158ZM115.108 20.0825L112.733 22.1658L113.392 22.9175L115.767 20.8342L115.108 20.0825ZM110.358 24.2491L107.983 26.3325L108.642 27.0842L111.017 25.0009L110.358 24.2491ZM105.608 28.4158L103.233 30.4991L103.892 31.2509L106.267 29.1675L105.608 28.4158ZM100.858 32.5825L99.6703 33.6241L100.33 34.3759L101.517 33.3342L100.858 32.5825ZM100 34.5H101.425V33.5H100V34.5ZM104.275 34.5H107.125V33.5H104.275V34.5ZM109.975 34.5H112.825V33.5H109.975V34.5ZM115.675 34.5H118.525V33.5H115.675V34.5ZM121.375 34.5H124.225V33.5H121.375V34.5ZM127.075 34.5H128.5V33.5H127.075V34.5Z"/>
</mask>
<path d="M99.6464 8.64643C99.4512 8.84169 99.4512 9.15827 99.6464 9.35353L102.828 12.5355C103.024 12.7308 103.34 12.7308 103.536 12.5355C103.731 12.3402 103.731 12.0237 103.536 11.8284L100.707 8.99998L103.536 6.17155C103.731 5.97629 103.731 5.65971 103.536 5.46445C103.34 5.26918 103.024 5.26918 102.828 5.46445L99.6464 8.64643ZM128.5 8.99998L128.83 9.37586L129.828 8.49998H128.5V8.99998ZM100 34L99.6703 33.6241L98.6718 34.5H100V34ZM128.854 34.3536C129.049 34.1583 129.049 33.8417 128.854 33.6464L125.672 30.4645C125.476 30.2692 125.16 30.2692 124.964 30.4645C124.769 30.6597 124.769 30.9763 124.964 31.1716L127.793 34L124.964 36.8284C124.769 37.0237 124.769 37.3403 124.964 37.5355C125.16 37.7308 125.476 37.7308 125.672 37.5355L128.854 34.3536ZM100 9.49998H101.425V8.49998H100V9.49998ZM104.275 9.49998H107.125V8.49998H104.275V9.49998ZM109.975 9.49998H112.825V8.49998H109.975V9.49998ZM115.675 9.49998H118.525V8.49998H115.675V9.49998ZM121.375 9.49998H124.225V8.49998H121.375V9.49998ZM127.075 9.49998H128.5V8.49998H127.075V9.49998ZM128.17 8.6241L126.983 9.66577L127.642 10.4175L128.83 9.37586L128.17 8.6241ZM124.608 11.7491L122.233 13.8324L122.892 14.5842L125.267 12.5009L124.608 11.7491ZM119.858 15.9158L117.483 17.9991L118.142 18.7509L120.517 16.6675L119.858 15.9158ZM115.108 20.0825L112.733 22.1658L113.392 22.9175L115.767 20.8342L115.108 20.0825ZM110.358 24.2491L107.983 26.3325L108.642 27.0842L111.017 25.0009L110.358 24.2491ZM105.608 28.4158L103.233 30.4991L103.892 31.2509L106.267 29.1675L105.608 28.4158ZM100.858 32.5825L99.6703 33.6241L100.33 34.3759L101.517 33.3342L100.858 32.5825ZM100 34.5H101.425V33.5H100V34.5ZM104.275 34.5H107.125V33.5H104.275V34.5ZM109.975 34.5H112.825V33.5H109.975V34.5ZM115.675 34.5H118.525V33.5H115.675V34.5ZM121.375 34.5H124.225V33.5H121.375V34.5ZM127.075 34.5H128.5V33.5H127.075V34.5Z" fill="url(#paint8_linear_8_352)"/>
<path d="M99.6464 8.64643L98.2321 7.2323L98.232 7.23243L99.6464 8.64643ZM99.6464 9.35353L98.232 10.7675L98.2321 10.7677L99.6464 9.35353ZM102.828 12.5355L101.414 13.9496L101.416 13.9524L102.828 12.5355ZM103.536 12.5355L104.948 13.9524L104.951 13.9488L103.536 12.5355ZM103.536 11.8284L104.951 10.4151L104.95 10.414L103.536 11.8284ZM100.707 8.99998L99.2929 7.58562L97.8783 8.99998L99.2929 10.4143L100.707 8.99998ZM103.536 6.17155L104.95 7.5859L104.951 7.58482L103.536 6.17155ZM103.536 5.46445L104.951 4.05117L104.948 4.0476L103.536 5.46445ZM102.828 5.46445L101.416 4.04759L101.414 4.05032L102.828 5.46445ZM128.5 8.99998H126.5V9.75335L126.997 10.3195L128.5 8.99998ZM128.83 9.37586L130.149 10.8796L130.149 10.879L128.83 9.37586ZM129.828 8.49998L131.147 10.0032L135.139 6.49998H129.828V8.49998ZM100 34H102V33.2472L101.504 32.6812L100 34ZM99.6703 33.6241L98.3516 32.1204L98.3514 32.1206L99.6703 33.6241ZM98.6718 34.5L97.3529 32.9965L93.359 36.5H98.6718V34.5ZM128.854 34.3536L130.268 35.7678L130.269 35.7667L128.854 34.3536ZM128.854 33.6464L130.269 32.2332L130.268 32.2321L128.854 33.6464ZM125.672 30.4645L127.086 29.0502L127.084 29.0477L125.672 30.4645ZM124.964 30.4645L123.552 29.0477L123.549 29.051L124.964 30.4645ZM124.964 31.1716L123.549 32.5847L123.55 32.5859L124.964 31.1716ZM127.793 34L129.207 35.4143L130.622 34L129.207 32.5856L127.793 34ZM124.964 36.8284L123.55 35.414L123.549 35.4152L124.964 36.8284ZM124.964 37.5355L123.549 38.949L123.552 38.9522L124.964 37.5355ZM125.672 37.5355L127.084 38.9522L127.086 38.9497L125.672 37.5355ZM100 9.49998H98V11.5H100V9.49998ZM101.425 9.49998V11.5H103.425V9.49998H101.425ZM101.425 8.49998H103.425V6.49998H101.425V8.49998ZM100 8.49998V6.49998H98V8.49998H100ZM104.275 9.49998H102.275V11.5H104.275V9.49998ZM107.125 9.49998V11.5H109.125V9.49998H107.125ZM107.125 8.49998H109.125V6.49998H107.125V8.49998ZM104.275 8.49998V6.49998H102.275V8.49998H104.275ZM109.975 9.49998H107.975V11.5H109.975V9.49998ZM112.825 9.49998V11.5H114.825V9.49998H112.825ZM112.825 8.49998H114.825V6.49998H112.825V8.49998ZM109.975 8.49998V6.49998H107.975V8.49998H109.975ZM115.675 9.49998H113.675V11.5H115.675V9.49998ZM118.525 9.49998V11.5H120.525V9.49998H118.525ZM118.525 8.49998H120.525V6.49998H118.525V8.49998ZM115.675 8.49998V6.49998H113.675V8.49998H115.675ZM121.375 9.49998H119.375V11.5H121.375V9.49998ZM124.225 9.49998V11.5H126.225V9.49998H124.225ZM124.225 8.49998H126.225V6.49998H124.225V8.49998ZM121.375 8.49998V6.49998H119.375V8.49998H121.375ZM127.075 9.49998H125.075V11.5H127.075V9.49998ZM128.5 9.49998V11.5H130.5V9.49998H128.5ZM127.075 8.49998V6.49998H125.075V8.49998H127.075ZM128.17 8.6241L129.673 7.30458L128.354 5.80194L126.851 7.12086L128.17 8.6241ZM126.983 9.66577L125.664 8.16253L124.161 9.481L125.479 10.9841L126.983 9.66577ZM127.642 10.4175L126.138 11.7359L127.457 13.24L128.961 11.9213L127.642 10.4175ZM124.608 11.7491L126.112 10.4307L124.793 8.92627L123.289 10.2456L124.608 11.7491ZM122.233 13.8324L120.914 12.3289L119.411 13.6474L120.729 15.1508L122.233 13.8324ZM122.892 14.5842L121.388 15.9026L122.707 17.407L124.211 16.0877L122.892 14.5842ZM125.267 12.5009L126.586 14.0044L128.089 12.6859L126.771 11.1825L125.267 12.5009ZM119.858 15.9158L121.362 14.5973L120.043 13.093L118.539 14.4122L119.858 15.9158ZM117.483 17.9991L116.164 16.4955L114.661 17.8139L115.979 19.3174L117.483 17.9991ZM118.142 18.7509L116.638 20.0692L117.957 21.5738L119.461 20.2544L118.142 18.7509ZM120.517 16.6675L121.836 18.171L123.339 16.8525L122.021 15.349L120.517 16.6675ZM115.108 20.0825L116.612 18.764L115.293 17.2597L113.789 18.5789L115.108 20.0825ZM112.733 22.1658L111.414 20.6622L109.911 21.9807L111.229 23.4842L112.733 22.1658ZM113.392 22.9175L111.888 24.2359L113.207 25.7402L114.711 24.421L113.392 22.9175ZM115.767 20.8342L117.086 22.3377L118.589 21.0192L117.271 19.5157L115.767 20.8342ZM110.358 24.2491L111.862 22.9307L110.543 21.4262L109.039 22.7456L110.358 24.2491ZM107.983 26.3325L106.664 24.829L105.161 26.1475L106.479 27.6509L107.983 26.3325ZM108.642 27.0842L107.138 28.4026L108.457 29.9069L109.961 28.5877L108.642 27.0842ZM111.017 25.0009L112.336 26.5044L113.839 25.186L112.521 23.6825L111.017 25.0009ZM105.608 28.4158L107.112 27.0973L105.793 25.593L104.289 26.9122L105.608 28.4158ZM103.233 30.4991L101.914 28.9955L100.411 30.3139L101.729 31.8174L103.233 30.4991ZM103.892 31.2509L102.388 32.5692L103.707 34.0738L105.211 32.7544L103.892 31.2509ZM106.267 29.1675L107.586 30.671L109.089 29.3525L107.771 27.849L106.267 29.1675ZM100.858 32.5825L102.362 31.264L101.043 29.7599L99.5393 31.0788L100.858 32.5825ZM100.33 34.3759L98.8267 35.695L100.146 37.1984L101.649 35.8791L100.33 34.3759ZM101.517 33.3342L102.836 34.8374L104.339 33.5189L103.021 32.0157L101.517 33.3342ZM101.425 34.5V36.5H103.425V34.5H101.425ZM101.425 33.5H103.425V31.5H101.425V33.5ZM100 33.5V31.5H98V33.5H100ZM104.275 34.5H102.275V36.5H104.275V34.5ZM107.125 34.5V36.5H109.125V34.5H107.125ZM107.125 33.5H109.125V31.5H107.125V33.5ZM104.275 33.5V31.5H102.275V33.5H104.275ZM109.975 34.5H107.975V36.5H109.975V34.5ZM112.825 34.5V36.5H114.825V34.5H112.825ZM112.825 33.5H114.825V31.5H112.825V33.5ZM109.975 33.5V31.5H107.975V33.5H109.975ZM115.675 34.5H113.675V36.5H115.675V34.5ZM118.525 34.5V36.5H120.525V34.5H118.525ZM118.525 33.5H120.525V31.5H118.525V33.5ZM115.675 33.5V31.5H113.675V33.5H115.675ZM121.375 34.5H119.375V36.5H121.375V34.5ZM124.225 34.5V36.5H126.225V34.5H124.225ZM124.225 33.5H126.225V31.5H124.225V33.5ZM121.375 33.5V31.5H119.375V33.5H121.375ZM127.075 34.5H125.075V36.5H127.075V34.5ZM128.5 34.5V36.5H130.5V34.5H128.5ZM128.5 33.5H130.5V31.5H128.5V33.5ZM127.075 33.5V31.5H125.075V33.5H127.075ZM98.232 7.23243C97.256 8.20869 97.256 9.79126 98.232 10.7675L101.061 7.93953C101.646 8.52527 101.646 9.47468 101.061 10.0604L98.232 7.23243ZM98.2321 10.7677L101.414 13.9496L104.242 11.1214L101.061 7.9394L98.2321 10.7677ZM101.416 13.9524C102.393 14.9252 103.971 14.9252 104.948 13.9524L102.124 11.1187C102.709 10.5364 103.655 10.5364 104.24 11.1187L101.416 13.9524ZM104.951 13.9488C105.926 12.9727 105.926 11.3912 104.951 10.4151L102.121 13.2417C101.536 12.6561 101.536 11.7078 102.121 11.1222L104.951 13.9488ZM104.95 10.414L102.121 7.58562L99.2929 10.4143L102.122 13.2428L104.95 10.414ZM102.121 10.4143L104.95 7.5859L102.122 4.75719L99.2929 7.58562L102.121 10.4143ZM104.951 7.58482C105.926 6.60872 105.926 5.02727 104.951 4.05117L102.121 6.87772C101.536 6.29214 101.536 5.34385 102.121 4.75827L104.951 7.58482ZM104.948 4.0476C103.971 3.07479 102.393 3.07479 101.416 4.0476L104.24 6.8813C103.655 7.46356 102.709 7.46356 102.124 6.8813L104.948 4.0476ZM101.414 4.05032L98.2321 7.2323L101.061 10.0606L104.242 6.87858L101.414 4.05032ZM126.997 10.3195L127.327 10.6954L130.333 8.05634L130.003 7.68046L126.997 10.3195ZM130.149 10.879L131.147 10.0032L128.509 6.99679L127.511 7.87267L130.149 10.879ZM129.828 6.49998H128.5V10.5H129.828V6.49998ZM126.5 8.49998V8.99998H130.5V8.49998H126.5ZM101.504 32.6812L101.174 32.3053L98.1667 34.9429L98.4964 35.3188L101.504 32.6812ZM98.3514 32.1206L97.3529 32.9965L99.9907 36.0035L100.989 35.1276L98.3514 32.1206ZM98.6718 36.5H100V32.5H98.6718V36.5ZM102 34.5V34H98V34.5H102ZM130.269 35.7667C131.244 34.7906 131.244 33.2093 130.269 32.2332L127.439 35.0595C126.854 34.474 126.854 33.5259 127.439 32.9404L130.269 35.7667ZM130.268 32.2321L127.086 29.0502L124.258 31.8787L127.44 35.0606L130.268 32.2321ZM127.084 29.0477C126.107 28.0748 124.529 28.0748 123.552 29.0477L126.376 31.8812C125.791 32.4636 124.845 32.4636 124.26 31.8812L127.084 29.0477ZM123.549 29.051C122.574 30.0273 122.574 31.6088 123.549 32.5847L126.379 29.7584C126.964 30.3437 126.964 31.2921 126.379 31.878L123.549 29.051ZM123.55 32.5859L126.379 35.4143L129.207 32.5856L126.378 29.7572L123.55 32.5859ZM126.379 32.5856L123.55 35.414L126.378 38.2427L129.207 35.4143L126.379 32.5856ZM123.549 35.4152C122.574 36.3911 122.574 37.9727 123.549 38.949L126.379 36.122C126.964 36.7079 126.964 37.6562 126.379 38.2415L123.549 35.4152ZM123.552 38.9522C124.529 39.9252 126.107 39.9252 127.084 38.9522L124.26 36.1187C124.845 35.5364 125.791 35.5364 126.376 36.1187L123.552 38.9522ZM127.086 38.9497L130.268 35.7678L127.44 32.9393L124.258 36.1212L127.086 38.9497ZM100 11.5H101.425V7.49998H100V11.5ZM103.425 9.49998V8.49998H99.425V9.49998H103.425ZM101.425 6.49998H100V10.5H101.425V6.49998ZM98 8.49998V9.49998H102V8.49998H98ZM104.275 11.5H107.125V7.49998H104.275V11.5ZM109.125 9.49998V8.49998H105.125V9.49998H109.125ZM107.125 6.49998H104.275V10.5H107.125V6.49998ZM102.275 8.49998V9.49998H106.275V8.49998H102.275ZM109.975 11.5H112.825V7.49998H109.975V11.5ZM114.825 9.49998V8.49998H110.825V9.49998H114.825ZM112.825 6.49998H109.975V10.5H112.825V6.49998ZM107.975 8.49998V9.49998H111.975V8.49998H107.975ZM115.675 11.5H118.525V7.49998H115.675V11.5ZM120.525 9.49998V8.49998H116.525V9.49998H120.525ZM118.525 6.49998H115.675V10.5H118.525V6.49998ZM113.675 8.49998V9.49998H117.675V8.49998H113.675ZM121.375 11.5H124.225V7.49998H121.375V11.5ZM126.225 9.49998V8.49998H122.225V9.49998H126.225ZM124.225 6.49998H121.375V10.5H124.225V6.49998ZM119.375 8.49998V9.49998H123.375V8.49998H119.375ZM127.075 11.5H128.5V7.49998H127.075V11.5ZM130.5 9.49998V8.49998H126.5V9.49998H130.5ZM128.5 6.49998H127.075V10.5H128.5V6.49998ZM125.075 8.49998V9.49998H129.075V8.49998H125.075ZM126.851 7.12086L125.664 8.16253L128.302 11.169L129.489 10.1273L126.851 7.12086ZM125.479 10.9841L126.138 11.7359L129.146 9.09915L128.487 8.34739L125.479 10.9841ZM128.961 11.9213L130.149 10.8796L127.511 7.87206L126.323 8.91373L128.961 11.9213ZM130.333 8.05634L129.673 7.30458L126.667 9.94361L127.327 10.6954L130.333 8.05634ZM123.289 10.2456L120.914 12.3289L123.552 15.3359L125.927 13.2526L123.289 10.2456ZM120.729 15.1508L121.388 15.9026L124.396 13.2658L123.737 12.514L120.729 15.1508ZM124.211 16.0877L126.586 14.0044L123.948 10.9973L121.573 13.0807L124.211 16.0877ZM126.771 11.1825L126.112 10.4307L123.104 13.0675L123.763 13.8192L126.771 11.1825ZM118.539 14.4122L116.164 16.4955L118.802 19.5026L121.177 17.4193L118.539 14.4122ZM115.979 19.3174L116.638 20.0692L119.646 17.4325L118.987 16.6807L115.979 19.3174ZM119.461 20.2544L121.836 18.171L119.198 15.164L116.823 17.2474L119.461 20.2544ZM122.021 15.349L121.362 14.5973L118.354 17.2342L119.013 17.9859L122.021 15.349ZM113.789 18.5789L111.414 20.6622L114.052 23.6693L116.427 21.586L113.789 18.5789ZM111.229 23.4842L111.888 24.2359L114.896 21.599L114.237 20.8473L111.229 23.4842ZM114.711 24.421L117.086 22.3377L114.448 19.3306L112.073 21.4139L114.711 24.421ZM117.271 19.5157L116.612 18.764L113.604 21.4009L114.263 22.1526L117.271 19.5157ZM109.039 22.7456L106.664 24.829L109.302 27.836L111.677 25.7526L109.039 22.7456ZM106.479 27.6509L107.138 28.4026L110.146 25.7657L109.487 25.014L106.479 27.6509ZM109.961 28.5877L112.336 26.5044L109.698 23.4973L107.323 25.5806L109.961 28.5877ZM112.521 23.6825L111.862 22.9307L108.854 25.5674L109.513 26.3192L112.521 23.6825ZM104.289 26.9122L101.914 28.9955L104.552 32.0026L106.927 29.9193L104.289 26.9122ZM101.729 31.8174L102.388 32.5692L105.396 29.9325L104.737 29.1807L101.729 31.8174ZM105.211 32.7544L107.586 30.671L104.948 27.664L102.573 29.7474L105.211 32.7544ZM107.771 27.849L107.112 27.0973L104.104 29.7342L104.763 30.4859L107.771 27.849ZM99.5393 31.0788L98.3516 32.1204L100.989 35.1277L102.177 34.0861L99.5393 31.0788ZM98.167 34.9432L98.8267 35.695L101.833 33.0567L101.174 32.3049L98.167 34.9432ZM101.649 35.8791L102.836 34.8374L100.198 31.831L99.0108 32.8727L101.649 35.8791ZM103.021 32.0157L102.362 31.264L99.3541 33.9009L100.013 34.6526L103.021 32.0157ZM100 36.5H101.425V32.5H100V36.5ZM103.425 34.5V33.5H99.425V34.5H103.425ZM101.425 31.5H100V35.5H101.425V31.5ZM98 33.5V34.5H102V33.5H98ZM104.275 36.5H107.125V32.5H104.275V36.5ZM109.125 34.5V33.5H105.125V34.5H109.125ZM107.125 31.5H104.275V35.5H107.125V31.5ZM102.275 33.5V34.5H106.275V33.5H102.275ZM109.975 36.5H112.825V32.5H109.975V36.5ZM114.825 34.5V33.5H110.825V34.5H114.825ZM112.825 31.5H109.975V35.5H112.825V31.5ZM107.975 33.5V34.5H111.975V33.5H107.975ZM115.675 36.5H118.525V32.5H115.675V36.5ZM120.525 34.5V33.5H116.525V34.5H120.525ZM118.525 31.5H115.675V35.5H118.525V31.5ZM113.675 33.5V34.5H117.675V33.5H113.675ZM121.375 36.5H124.225V32.5H121.375V36.5ZM126.225 34.5V33.5H122.225V34.5H126.225ZM124.225 31.5H121.375V35.5H124.225V31.5ZM119.375 33.5V34.5H123.375V33.5H119.375ZM127.075 36.5H128.5V32.5H127.075V36.5ZM130.5 34.5V33.5H126.5V34.5H130.5ZM128.5 31.5H127.075V35.5H128.5V31.5ZM125.075 33.5V34.5H129.075V33.5H125.075Z" fill="black" mask="url(#path-10-inside-1_8_352)"/>
<defs>
<linearGradient id="paint0_linear_8_352" x1="69.7647" y1="5" x2="69.7647" y2="84.9999" gradientUnits="userSpaceOnUse">
<stop/>
<stop offset="1" stop-color="#6A9AE3"/>
</linearGradient>
<linearGradient id="paint1_linear_8_352" x1="75.0684" y1="12.3138" x2="75.0684" y2="29.4427" gradientUnits="userSpaceOnUse">
<stop/>
<stop offset="1" stop-color="#6A9AE3"/>
</linearGradient>
<linearGradient id="paint2_linear_8_352" x1="68.0243" y1="16.818" x2="68.0243" y2="32.9413" gradientUnits="userSpaceOnUse">
<stop/>
<stop offset="1" stop-color="#6A9AE3"/>
</linearGradient>
<linearGradient id="paint3_linear_8_352" x1="56.6345" y1="21.4346" x2="56.6345" y2="35.3833" gradientUnits="userSpaceOnUse">
<stop/>
<stop offset="1" stop-color="#6A9AE3"/>
</linearGradient>
<linearGradient id="paint4_linear_8_352" x1="52.3186" y1="23.6631" x2="52.3186" y2="27.1565" gradientUnits="userSpaceOnUse">
<stop/>
<stop offset="1" stop-color="#6A9AE3"/>
</linearGradient>
<linearGradient id="paint5_linear_8_352" x1="80.8581" y1="23.3805" x2="80.8581" y2="31.7272" gradientUnits="userSpaceOnUse">
<stop/>
<stop offset="1" stop-color="#6A9AE3"/>
</linearGradient>
<linearGradient id="paint6_linear_8_352" x1="63.2542" y1="31.1565" x2="63.2542" y2="39.2736" gradientUnits="userSpaceOnUse">
<stop/>
<stop offset="1" stop-color="#6A9AE3"/>
</linearGradient>
<linearGradient id="paint7_linear_8_352" x1="64.2995" y1="37.0355" x2="64.2995" y2="85" gradientUnits="userSpaceOnUse">
<stop/>
<stop offset="1" stop-color="#6A9AE3"/>
</linearGradient>
<linearGradient id="paint8_linear_8_352" x1="114.25" y1="5.31799" x2="114.25" y2="37.6819" gradientUnits="userSpaceOnUse">
<stop/>
<stop offset="1" stop-color="#6A9AE3"/>
</linearGradient>
</defs>
</svg>
